<svg xmlns="http://www.w3.org/2000/svg" viewBox="0 0 127.08 52.18"><defs><style>.cls-1{fill:#90cfcc;}.cls-2{fill:#fff;}.cls-3{font-size:48px;fill:#1d1d1b;font-family:MyriadPro-Regular, Myriad Pro;}</style></defs><title>dicaso-suite</title><g id="Laag_2" data-name="Laag 2"><g id="Text_logo_suite" data-name="Text logo suite"><circle class="cls-1" cx="109.56" cy="28.7" r="3.34"/><circle class="cls-1" cx="105.75" cy="28.7" r="3.34"/><rect class="cls-1" x="104.32" y="26.79" width="6.68" height="3.82" transform="translate(78.96 136.35) rotate(-90)"/><circle class="cls-1" cx="123.74" cy="28.7" r="3.34"/><circle class="cls-1" cx="119.93" cy="28.7" r="3.34"/><rect class="cls-1" x="118.5" y="26.79" width="6.68" height="3.82" transform="translate(93.14 150.53) rotate(-90)"/><circle class="cls-1" cx="114.74" cy="23.51" r="3.34"/><circle class="cls-1" cx="114.74" cy="19.7" r="3.34"/><rect class="cls-1" x="111.41" y="19.7" width="6.68" height="3.82"/><circle class="cls-1" cx="114.74" cy="37.69" r="3.34"/><circle class="cls-1" cx="114.74" cy="33.88" r="3.34"/><rect class="cls-1" x="111.41" y="33.88" width="6.68" height="3.82"/><circle class="cls-1" cx="114.74" cy="28.7" r="12.34"/><ellipse class="cls-2" cx="114.74" cy="28.32" rx="10.52" ry="10.14"/><circle class="cls-1" cx="114.74" cy="28.7" r="9"/><circle class="cls-1" cx="114.74" cy="23.51" r="3.34"/><circle class="cls-1" cx="114.74" cy="19.7" r="3.34"/><rect class="cls-1" x="111.41" y="19.7" width="6.68" height="3.82"/><circle class="cls-2" cx="115.62" cy="18.94" r="0.76"/><circle class="cls-1" cx="109.56" cy="28.7" r="3.34"/><circle class="cls-1" cx="105.75" cy="28.7" r="3.34"/><rect class="cls-1" x="104.32" y="26.79" width="6.68" height="3.82" transform="translate(78.96 136.35) rotate(-90)"/><circle class="cls-2" cx="104.99" cy="27.82" r="0.76"/><circle class="cls-1" cx="114.86" cy="33.88" r="3.34"/><circle class="cls-1" cx="114.86" cy="37.69" r="3.34"/><rect class="cls-1" x="111.52" y="33.88" width="6.68" height="3.82" transform="translate(229.71 71.57) rotate(-180)"/><circle class="cls-2" cx="113.98" cy="38.45" r="0.76"/><circle class="cls-1" cx="119.93" cy="28.58" r="3.34"/><circle class="cls-1" cx="123.74" cy="28.58" r="3.34"/><rect class="cls-1" x="118.5" y="26.68" width="6.68" height="3.82" transform="translate(150.42 -93.25) rotate(90)"/><circle class="cls-2" cx="124.5" cy="29.46" r="0.76"/><text class="cls-3" transform="translate(0 40.18)">dica<tspan class="cls-1" x="82.94" y="0">s</tspan></text></g></g></svg>