<svg xmlns="http://www.w3.org/2000/svg" viewBox="0 0 179.08 52.18"><defs><style>.cls-1,.cls-7{font-size:48px;font-family:MyriadPro-Regular, Myriad Pro;}.cls-1{fill:#1d1d1b;}.cls-2{letter-spacing:-0.01em;}.cls-3{letter-spacing:-0.01em;}.cls-4,.cls-7{fill:#90cfcc;}.cls-5{fill:none;letter-spacing:0em;}.cls-6{fill:#fff;}</style></defs><title>pycassos-text-logo</title><g id="Laag_2" data-name="Laag 2"><g id="Text_pycassos_logo" data-name="Text pycassos logo"><text class="cls-1" transform="translate(0 40.18)"><tspan class="cls-2">p</tspan><tspan class="cls-3" x="26.98" y="0">y</tspan><tspan x="49.1" y="0">cas</tspan><tspan class="cls-4" x="112.75" y="0">s</tspan><tspan class="cls-5" x="131.76" y="0">os</tspan></text><circle class="cls-4" cx="140.86" cy="28.7" r="3.34"/><circle class="cls-4" cx="137.05" cy="28.7" r="3.34"/><rect class="cls-4" x="135.62" y="26.79" width="6.68" height="3.82" transform="translate(110.26 167.65) rotate(-90)"/><circle class="cls-4" cx="155.04" cy="28.7" r="3.34"/><circle class="cls-4" cx="151.23" cy="28.7" r="3.34"/><rect class="cls-4" x="149.8" y="26.79" width="6.68" height="3.82" transform="translate(124.44 181.83) rotate(-90)"/><circle class="cls-4" cx="146.04" cy="23.51" r="3.34"/><circle class="cls-4" cx="146.04" cy="19.7" r="3.34"/><rect class="cls-4" x="142.71" y="19.7" width="6.68" height="3.82"/><circle class="cls-4" cx="146.04" cy="37.69" r="3.34"/><circle class="cls-4" cx="146.04" cy="33.88" r="3.34"/><rect class="cls-4" x="142.71" y="33.88" width="6.68" height="3.82"/><circle class="cls-4" cx="146.04" cy="28.7" r="12.34"/><ellipse class="cls-6" cx="146.04" cy="28.32" rx="10.52" ry="10.14"/><circle class="cls-4" cx="146.04" cy="28.7" r="9"/><circle class="cls-4" cx="146.04" cy="23.51" r="3.34"/><circle class="cls-4" cx="146.04" cy="19.7" r="3.34"/><rect class="cls-4" x="142.71" y="19.7" width="6.68" height="3.82"/><circle class="cls-6" cx="146.92" cy="18.94" r="0.76"/><circle class="cls-4" cx="140.86" cy="28.7" r="3.34"/><circle class="cls-4" cx="137.05" cy="28.7" r="3.34"/><rect class="cls-4" x="135.62" y="26.79" width="6.68" height="3.82" transform="translate(110.26 167.65) rotate(-90)"/><circle class="cls-6" cx="136.29" cy="27.82" r="0.76"/><circle class="cls-4" cx="146.16" cy="33.88" r="3.34"/><circle class="cls-4" cx="146.16" cy="37.69" r="3.34"/><rect class="cls-4" x="142.82" y="33.88" width="6.68" height="3.82" transform="translate(292.31 71.57) rotate(-180)"/><circle class="cls-6" cx="145.28" cy="38.45" r="0.76"/><circle class="cls-4" cx="151.23" cy="28.58" r="3.34"/><circle class="cls-4" cx="155.04" cy="28.58" r="3.34"/><rect class="cls-4" x="149.8" y="26.68" width="6.68" height="3.82" transform="translate(181.72 -124.55) rotate(90)"/><circle class="cls-6" cx="155.8" cy="29.46" r="0.76"/><text class="cls-7" transform="matrix(-1, 0, 0, 1, 179.08, 40.18)">s</text><circle class="cls-6" cx="127.16" cy="18.94" r="0.76"/><circle class="cls-6" cx="164.78" cy="18.94" r="0.76"/></g></g></svg>